<svg width="100" height="100" viewBox="0 0 100 100" fill="none" xmlns="http://www.w3.org/2000/svg">
<g id="avatar" clip-path="url(#clip0_6814_79747)">
<circle id="Ellipse 2" cx="50" cy="50" r="50" fill="#078F73"/>
<path id="logo" fill-rule="evenodd" clip-rule="evenodd" d="M58.028 5.11914C61.8963 5.77931 65.569 6.95454 69.1513 8.55081C69.2351 8.58805 69.277 8.65459 69.277 8.75043C69.2784 10.0476 69.2759 11.338 69.2695 12.6215C69.2694 12.6361 69.2655 12.6504 69.2583 12.6631C69.2511 12.6758 69.2408 12.6864 69.2283 12.694C69.2159 12.7016 69.2017 12.7058 69.1872 12.7064C69.1726 12.7069 69.1582 12.7038 69.1452 12.6972C65.7453 10.9649 62.1807 9.73172 58.4514 8.99774C57.2448 8.76019 56.3448 8.60963 55.7512 8.54604C55.2438 8.49154 54.7363 8.4359 54.2289 8.37912C53.9331 8.34641 53.616 8.33023 53.2937 8.31378C52.985 8.29803 52.6716 8.28203 52.3674 8.25104C52.3396 8.24818 52.3139 8.2351 52.2952 8.21434C52.2765 8.19358 52.2662 8.1666 52.2661 8.13863L52.2641 4.62452C52.2641 4.60762 52.2676 4.5909 52.2745 4.57547C52.2813 4.56004 52.2914 4.54624 52.3039 4.53498C52.3164 4.52372 52.3311 4.51526 52.3471 4.51014C52.3631 4.50502 52.38 4.50337 52.3966 4.50529C52.4338 4.50935 52.4707 4.51347 52.5073 4.51758C52.7231 4.54174 52.9315 4.56506 53.1558 4.56797C53.5335 4.57244 53.9022 4.60655 54.2728 4.64083C54.4669 4.65879 54.6615 4.67679 54.8582 4.69061C55.0055 4.70068 55.1474 4.71996 55.2914 4.73951C55.4298 4.75831 55.57 4.77736 55.7186 4.78871C55.8328 4.79689 55.9683 4.81188 56.125 4.83368C56.898 4.9395 57.5323 5.03466 58.028 5.11914ZM31.7158 8.57466C36.5438 6.33934 41.7898 5.004 47.0908 4.60545C47.2597 4.5926 47.4572 4.58352 47.6654 4.57396C47.9649 4.5602 48.2868 4.54541 48.5778 4.51688C48.5869 4.51592 48.596 4.51688 48.6046 4.5197C48.6133 4.52252 48.6212 4.52714 48.6279 4.53325C48.6347 4.53936 48.6401 4.54682 48.6437 4.55515C48.6474 4.56348 48.6492 4.5725 48.6492 4.5816L48.6519 8.1727C48.6519 8.19094 48.6451 8.20852 48.6329 8.22209C48.6208 8.23566 48.6041 8.24427 48.586 8.24628C48.1664 8.2917 47.7428 8.31804 47.3151 8.32531C47.1444 8.32793 46.9805 8.34875 46.8168 8.36954C46.6833 8.38649 46.55 8.40343 46.4132 8.41047C46.1749 8.42319 45.9382 8.44839 45.703 8.48609C45.5941 8.50381 45.4876 8.51183 45.382 8.51978C45.2603 8.52894 45.1399 8.538 45.0187 8.56171C44.7921 8.60532 44.5649 8.64392 44.337 8.67753C39.9236 9.33112 35.7267 10.6733 31.7464 12.704C31.7347 12.7099 31.7216 12.7127 31.7085 12.7122C31.6954 12.7116 31.6826 12.7077 31.6714 12.7008C31.6603 12.6939 31.651 12.6843 31.6446 12.6728C31.6382 12.6613 31.6349 12.6483 31.6349 12.6352L31.6342 8.70138C31.6342 8.67477 31.6419 8.64868 31.6564 8.62622C31.6708 8.60376 31.6914 8.58586 31.7158 8.57466ZM17.1638 35.5443L12.4377 33.606C12.4284 33.6022 12.4199 33.5965 12.4127 33.5893C12.4056 33.5821 12.3999 33.5735 12.3962 33.564C12.3924 33.5546 12.3905 33.5445 12.3906 33.5342C12.3907 33.524 12.3929 33.5139 12.3969 33.5045C15.6347 25.9415 20.9581 19.5108 27.8413 14.9877C27.8503 14.9818 27.8577 14.9737 27.8628 14.9642C27.8679 14.9547 27.8705 14.944 27.8705 14.9332L27.8698 10.6594C27.8698 10.6515 27.8677 10.6438 27.8637 10.637C27.8598 10.6302 27.8542 10.6245 27.8474 10.6206C27.8407 10.6166 27.833 10.6146 27.8253 10.6146C27.8175 10.6146 27.8099 10.6166 27.8032 10.6206C22.6769 13.6285 18.1017 17.7162 14.6139 22.3218C10.146 28.2209 7.28484 34.8367 6.03027 42.1692C5.99311 42.3849 5.94645 42.7027 5.89027 43.1223C5.87119 43.2647 5.84908 43.4076 5.82694 43.5506C5.77884 43.8613 5.73057 44.1731 5.71288 44.4842C5.70429 44.6338 5.68457 44.7851 5.66472 44.9374C5.64531 45.0863 5.62578 45.2361 5.61638 45.3863C5.60404 45.5914 5.58491 45.7918 5.56589 45.9911C5.54194 46.242 5.51816 46.4911 5.50832 46.7454C5.49155 47.1828 5.47864 47.4715 5.46958 47.6114C5.38032 49.0262 5.38417 50.441 5.48113 51.8558C5.48882 51.9703 5.49514 52.1091 5.50213 52.2627C5.51922 52.6385 5.54031 53.1022 5.59531 53.5114C5.60801 53.6066 5.61434 53.721 5.621 53.8416C5.6286 53.9791 5.63665 54.1248 5.65512 54.2594C5.68343 54.4658 5.70535 54.6855 5.72646 54.8972C5.74487 55.0818 5.76267 55.2603 5.78357 55.4183C6.70422 62.3911 9.10509 68.8021 12.9862 74.6512C13.3165 75.1495 13.6687 75.6622 14.043 76.1896C14.052 76.2022 14.0635 76.2129 14.0767 76.221C14.09 76.229 14.1047 76.2344 14.12 76.2366C14.1353 76.2388 14.1509 76.2379 14.1658 76.2339C14.1807 76.2299 14.1947 76.223 14.2068 76.2134L16.9953 74.0006C17.0206 73.9806 17.0238 73.9574 17.0048 73.9311C15.2681 71.5329 13.8013 68.9808 12.6042 66.2747C12.5367 66.1221 12.4794 65.9656 12.4323 65.8053C12.4293 65.7955 12.4301 65.785 12.4346 65.7758C12.439 65.7666 12.4466 65.7594 12.4561 65.7556L17.191 63.8125C17.196 63.8103 17.2017 63.8102 17.2069 63.8122C17.2122 63.8142 17.2164 63.8183 17.2188 63.8234L18.3273 66.193C18.3279 66.1943 18.3285 66.1955 18.3292 66.1968C18.3301 66.1985 18.3311 66.2001 18.3322 66.2017C18.335 66.2058 18.3382 66.2096 18.3419 66.2129C18.3481 66.2185 18.3554 66.2228 18.3633 66.2255C18.3712 66.2282 18.3795 66.2292 18.3878 66.2285C18.3961 66.2278 18.4042 66.2255 18.4116 66.2216L21.565 64.5803C21.6361 64.5431 21.6534 64.4888 21.6167 64.4175C19.8932 61.041 18.7942 57.4681 18.3198 53.6987C18.3074 53.5993 18.3002 53.4988 18.293 53.3989C18.2849 53.2859 18.2769 53.1736 18.2614 53.0644C18.2247 52.8051 18.2009 52.5448 18.19 52.2837C18.1817 52.086 18.1635 51.8898 18.1453 51.6938C18.1233 51.4574 18.1014 51.2214 18.0969 50.9838C18.0806 50.1049 18.0811 49.226 18.0983 48.3472C18.1036 48.0743 18.1274 47.7839 18.1516 47.4899L18.1516 47.4895C18.1706 47.2581 18.1897 47.0243 18.2002 46.7952C18.2075 46.6288 18.2286 46.4622 18.2498 46.2947C18.2644 46.1796 18.279 46.0639 18.2892 45.9477C18.3173 45.6297 18.3389 45.4176 18.3538 45.3113C19.0139 40.4932 20.6643 36.0448 23.3048 31.9662C24.2572 30.495 25.3229 29.1115 26.5018 27.8157C26.6758 27.625 26.8502 27.4333 27.0251 27.2407C27.0441 27.2198 27.043 27.2001 27.0217 27.1814L24.2998 24.8501C24.2463 24.8042 24.1956 24.8071 24.1476 24.8589C21.2098 28.0042 18.8968 31.5599 17.2087 35.5259C17.2052 35.5343 17.1986 35.5409 17.1902 35.5443C17.1818 35.5478 17.1723 35.5478 17.1638 35.5443ZM10.8141 37.9609C11.1512 36.8047 11.5297 35.6247 11.998 34.5135C12.0023 34.503 12.0107 34.4947 12.0213 34.4903C12.0318 34.486 12.0438 34.486 12.0544 34.4904C13.5736 35.1071 15.0848 35.7262 16.5882 36.3476C16.6643 36.3789 16.7418 36.4009 16.8206 36.4136C16.8239 36.4141 16.827 36.4153 16.8298 36.4172C16.8325 36.4191 16.8348 36.4216 16.8364 36.4245C16.8375 36.4263 16.8382 36.4283 16.8387 36.4303L16.8389 36.4315C16.8391 36.4323 16.8392 36.4331 16.8392 36.4339C16.8394 36.4372 16.8389 36.4405 16.8376 36.4436C16.4579 37.3915 16.126 38.3556 15.8419 39.3357C15.8247 39.3948 15.7867 39.4159 15.7278 39.3991L10.8481 38.0222C10.8355 38.0185 10.8248 38.01 10.8185 37.9985C10.8121 37.9871 10.8105 37.9735 10.8141 37.9609ZM14.8625 43.3452C14.852 43.3524 14.8392 43.3553 14.8266 43.3533L9.77565 42.518C9.76901 42.5169 9.76267 42.5144 9.75701 42.5108C9.75135 42.5071 9.7465 42.5023 9.74275 42.4967C9.739 42.4911 9.73642 42.4848 9.73519 42.4781C9.73395 42.4715 9.73407 42.4647 9.73555 42.4581L10.5001 38.9794C10.5016 38.9728 10.5044 38.9666 10.5084 38.9612C10.5124 38.9557 10.5174 38.9511 10.5232 38.9477C10.529 38.9443 10.5354 38.942 10.5421 38.9412C10.5487 38.9403 10.5555 38.9408 10.562 38.9426L15.4926 40.3297C15.5047 40.3332 15.5151 40.3412 15.5215 40.3521C15.528 40.363 15.53 40.3759 15.5273 40.3883L14.883 43.3145C14.8804 43.327 14.873 43.338 14.8625 43.3452ZM14.7545 44.3637C14.7056 44.5612 14.6798 44.7007 14.6771 44.782C14.6722 44.9527 14.6454 45.1239 14.6194 45.2907C14.5985 45.424 14.5781 45.5546 14.5697 45.6799C14.5561 45.892 14.5368 46.1034 14.5119 46.3142C14.4806 46.5766 14.4655 46.8338 14.4504 47.0912C14.4393 47.2803 14.4282 47.4696 14.4107 47.6611C14.4039 47.7342 14.3638 47.7708 14.2904 47.7708H9.23535C9.22773 47.7708 9.22019 47.7693 9.21321 47.7662C9.20623 47.7631 9.19998 47.7586 9.19485 47.753C9.18972 47.7473 9.18584 47.7406 9.18345 47.7334C9.18106 47.7261 9.18022 47.7184 9.18098 47.7108C9.20724 47.4402 9.22004 47.1669 9.23281 46.8944C9.24683 46.5954 9.2608 46.2972 9.29244 46.0042C9.30688 45.8706 9.31936 45.7402 9.33184 45.6099C9.35697 45.3476 9.38206 45.0855 9.42293 44.7983C9.43625 44.7051 9.44508 44.6129 9.4539 44.5207C9.46624 44.3918 9.47856 44.2631 9.50312 44.132C9.54209 43.9258 9.5652 43.7176 9.57244 43.5073C9.57335 43.4818 9.58626 43.4712 9.61118 43.4752L14.7226 44.3146C14.728 44.3155 14.7332 44.3175 14.7379 44.3205C14.7425 44.3235 14.7464 44.3274 14.7494 44.332C14.7524 44.3366 14.7544 44.3418 14.7553 44.3473C14.7562 44.3527 14.7559 44.3583 14.7545 44.3637ZM9.22561 52.3496C9.21531 52.0882 9.20499 51.8265 9.16807 51.5656C9.1671 51.5588 9.16762 51.5518 9.1696 51.5452C9.17158 51.5386 9.17497 51.5324 9.17954 51.5272C9.18411 51.522 9.18976 51.5178 9.1961 51.5149C9.20245 51.512 9.20934 51.5105 9.21632 51.5104L14.3291 51.5063C14.3925 51.5063 14.4261 51.5381 14.4297 51.6017C14.4366 51.7249 14.4421 51.8458 14.4476 51.966C14.463 52.3058 14.4781 52.6401 14.5248 53.0045C14.5432 53.1468 14.5527 53.2844 14.5623 53.4233C14.5755 53.6141 14.5888 53.8073 14.6254 54.0182C14.6429 54.1193 14.6554 54.2268 14.6683 54.3374C14.6919 54.5407 14.7169 54.7549 14.7763 54.9605C14.7926 55.0173 14.7718 55.0504 14.7138 55.0599L9.66827 55.8884C9.65797 55.8901 9.64742 55.8896 9.6373 55.887C9.62719 55.8843 9.61775 55.8795 9.6096 55.8729C9.60145 55.8662 9.59477 55.8579 9.59001 55.8485C9.58524 55.8391 9.5825 55.8288 9.58196 55.8182C9.57172 55.6034 9.542 55.3956 9.51219 55.187C9.48858 55.0219 9.46491 54.8564 9.45079 54.6866C9.44126 54.5712 9.42438 54.4543 9.40778 54.3392C9.39125 54.2247 9.375 54.112 9.36652 54.0046C9.34024 53.6812 9.3083 53.3585 9.27069 53.0365C9.24369 52.8082 9.23466 52.579 9.22561 52.3496ZM14.9401 56.088C15.1036 56.9923 15.3087 57.9084 15.5551 58.8364C15.5674 58.884 15.581 58.9258 15.5959 58.9617C15.6068 58.989 15.598 59.0067 15.5694 59.0149L10.6748 60.3965C10.5937 60.4197 10.5425 60.3904 10.5212 60.3086C10.3141 59.5033 10.1211 58.6731 9.94216 57.8178C9.92733 57.7461 9.91272 57.66 9.89685 57.5665C9.86326 57.3686 9.82408 57.1377 9.76546 56.941C9.74779 56.8815 9.76953 56.8474 9.8307 56.8388C10.1741 56.7907 10.5305 56.7362 10.8997 56.6753C11.9944 56.4941 13.0886 56.3097 14.1823 56.1221C14.2311 56.1137 14.2843 56.1064 14.3404 56.0988C14.4849 56.0791 14.6481 56.0568 14.8028 56.0063C14.8798 55.9808 14.9256 56.0081 14.9401 56.088ZM11.9878 64.7943C11.971 64.7266 11.9464 64.6514 11.9137 64.5688C11.5028 63.515 11.1387 62.4495 10.8216 61.3721C10.8189 61.363 10.822 61.3574 10.8311 61.3551L15.7753 59.9591C15.8274 59.9441 15.861 59.9625 15.8759 60.0143C16.1577 60.9808 16.4837 61.9317 16.8539 62.8669C16.8586 62.8789 16.8584 62.8923 16.8533 62.9042C16.8482 62.916 16.8386 62.9254 16.8267 62.9302L12.1169 64.859C12.1042 64.8642 12.0905 64.8667 12.0768 64.8662C12.0631 64.8657 12.0497 64.8622 12.0374 64.8561C12.0252 64.8499 12.0144 64.8413 12.0058 64.8306C11.9973 64.8199 11.9911 64.8075 11.9878 64.7943ZM83.6483 63.8418C83.6397 63.8881 83.6245 63.9372 83.6027 63.989C83.2806 64.7402 82.9335 65.4755 82.5616 66.195C82.5543 66.2089 82.5419 66.2193 82.527 66.224C82.5121 66.2288 82.4959 66.2274 82.4821 66.2202L79.3028 64.5735C79.2915 64.5676 79.2815 64.5595 79.2734 64.5495C79.2694 64.5446 79.2659 64.5393 79.263 64.5338C79.26 64.5281 79.2576 64.5221 79.2558 64.5159C79.2523 64.5035 79.2514 64.4906 79.253 64.4779C79.2547 64.4652 79.2589 64.453 79.2654 64.442C79.2949 64.3916 79.3252 64.3346 79.3565 64.271C80.3406 62.2503 81.148 60.2344 81.7263 58.0576C82.1635 56.4139 82.4478 54.9607 82.5792 53.698C82.5917 53.578 82.6044 53.4625 82.6168 53.3499L82.6171 53.3476L82.6172 53.3465L82.6173 53.3454L82.6174 53.3446C82.6554 52.9997 82.6905 52.6807 82.7084 52.3348C82.7182 52.1404 82.735 51.944 82.7517 51.7486L82.7518 51.7479C82.7757 51.4689 82.7994 51.1921 82.8022 50.9265C82.8112 50.0872 82.8112 49.2476 82.8022 48.4078C82.799 48.125 82.7744 47.8285 82.7496 47.5293C82.7318 47.3147 82.7138 47.0985 82.7036 46.8851C82.695 46.7057 82.6751 46.5015 82.6438 46.2726C82.6237 46.1268 82.6097 45.9713 82.5962 45.8213C82.5846 45.6919 82.5733 45.5665 82.5588 45.4551C81.6876 38.7259 78.7108 32.4274 74.0949 27.4798C74.0681 27.4517 74.0695 27.4249 74.0989 27.3995L76.8432 25.0538C76.8545 25.044 76.8691 25.0391 76.884 25.0399C76.8988 25.0408 76.9127 25.0475 76.9228 25.0585C77.2159 25.3801 77.5097 25.7123 77.8042 26.0553C80.2332 28.8826 82.19 32.0275 83.6748 35.4898C83.6835 35.5097 83.6996 35.5254 83.7196 35.5335C83.7397 35.5417 83.7621 35.5416 83.7822 35.5334L88.46 33.6183C88.5094 33.5979 88.5234 33.5633 88.5021 33.5147C88.0518 32.4846 87.5595 31.4586 87.0253 30.4367C83.7781 24.2294 79.0588 18.963 73.0741 15.0026C73.0597 14.9932 73.0478 14.9804 73.0396 14.9653C73.0314 14.9502 73.0272 14.9333 73.0272 14.9161C73.0294 13.519 73.0285 12.111 73.0245 10.6921C73.0245 10.6512 73.041 10.6262 73.0741 10.6172C73.0854 10.6141 73.0975 10.6156 73.1081 10.6213C78.772 13.9514 83.67 18.4956 87.395 23.8629C91.784 30.1875 94.3999 37.1919 95.2426 44.876C95.2594 45.031 95.272 45.1886 95.2857 45.3591L95.2857 45.3597L95.2858 45.3602C95.3009 45.5485 95.3172 45.7527 95.3418 45.9865C95.3658 46.2154 95.3815 46.4868 95.3887 46.8006C95.3923 46.9654 95.4095 47.1609 95.4272 47.3632C95.4461 47.5791 95.4657 47.803 95.4703 48.0052C95.5015 49.3337 95.5219 50.6854 95.4173 52.0112C95.4096 52.1124 95.3978 52.3523 95.3819 52.7306C95.3693 53.0412 95.3351 53.3556 95.3013 53.6671V53.6675C95.2878 53.7918 95.2743 53.9157 95.2623 54.0387C95.1798 54.8817 95.0745 55.7219 94.9463 56.5595C93.8467 63.7464 90.9936 70.5832 86.6869 76.4232C86.6799 76.4327 86.6711 76.4406 86.661 76.4466C86.6509 76.4526 86.6398 76.4564 86.6281 76.458C86.6251 76.4584 86.6221 76.4586 86.619 76.4587C86.6148 76.4588 86.6106 76.4586 86.6064 76.4581C86.6044 76.4578 86.6024 76.4575 86.6004 76.4571L86.5965 76.4563L86.5934 76.4555C86.5822 76.4523 86.5716 76.4469 86.5625 76.4396C85.7257 75.7669 84.8881 75.0993 84.0499 74.4366C83.9534 74.3603 83.8581 74.291 83.7638 74.2288C83.7576 74.2247 83.7522 74.2193 83.7481 74.2131C83.7464 74.2105 83.7449 74.2078 83.7437 74.205C83.7419 74.201 83.7406 74.1968 83.7398 74.1925C83.7385 74.1852 83.7387 74.1777 83.7403 74.1704C83.742 74.1632 83.7451 74.1564 83.7495 74.1504C85.6466 71.5665 87.2235 68.7989 88.4804 65.8475C88.4839 65.8392 88.4858 65.8302 88.4859 65.8211C88.486 65.812 88.4843 65.803 88.4809 65.7946C88.4794 65.791 88.4777 65.7876 88.4758 65.7844C88.4736 65.7809 88.4711 65.7775 88.4683 65.7744L88.466 65.772C88.4596 65.7655 88.4521 65.7604 88.4437 65.7569L83.6986 63.8139C83.6709 63.8025 83.6542 63.8118 83.6483 63.8418ZM84.1043 36.4339L84.1036 36.4349L84.1027 36.4363L84.1018 36.438C84.0994 36.4432 84.0991 36.4491 84.1009 36.4545L85.104 39.3936C85.1058 39.3991 85.1096 39.4038 85.1146 39.4066C85.1197 39.4094 85.1256 39.4101 85.1312 39.4086L90.1094 38.0058C90.1124 38.005 90.1151 38.0037 90.1175 38.0018C90.1186 38.001 90.1195 38.0001 90.1204 37.9991C90.1215 37.9978 90.1225 37.9964 90.1234 37.9949C90.1238 37.994 90.1242 37.9931 90.1246 37.9922C90.1253 37.9903 90.1258 37.9883 90.126 37.9862C90.1263 37.9832 90.126 37.9801 90.125 37.9772L88.9296 34.4829C88.9291 34.4814 88.9285 34.4801 88.9277 34.4788C88.9272 34.4778 88.9265 34.4769 88.9257 34.476L88.9251 34.4751C88.9242 34.4742 88.9232 34.4733 88.9221 34.4724C88.9208 34.4714 88.9194 34.4705 88.9179 34.4698C88.9151 34.4686 88.9122 34.4679 88.9092 34.4677C88.9062 34.4676 88.9032 34.4681 88.9004 34.4692L84.1138 36.4266C84.1114 36.4276 84.1092 36.429 84.1072 36.4307C84.1062 36.4317 84.1052 36.4327 84.1043 36.4339ZM85.4139 40.3317C85.4026 40.3348 85.3929 40.3421 85.3869 40.3521C85.3836 40.3575 85.3815 40.3634 85.3807 40.3695C85.38 40.3748 85.3802 40.3803 85.3813 40.3856L86.0188 43.3151C86.0213 43.3267 86.0281 43.3368 86.0378 43.3434C86.0476 43.35 86.0595 43.3526 86.0711 43.3506L91.1275 42.5187C91.1336 42.5177 91.1394 42.5155 91.1446 42.5122C91.1498 42.5089 91.1543 42.5046 91.1578 42.4995C91.1613 42.4944 91.1638 42.4886 91.165 42.4826C91.1662 42.4765 91.1661 42.4703 91.1649 42.4642L90.4037 38.978C90.4024 38.972 90.3998 38.9663 90.3962 38.9613C90.3926 38.9563 90.388 38.9521 90.3828 38.9489C90.3775 38.9457 90.3716 38.9436 90.3655 38.9428C90.3644 38.9426 90.3633 38.9425 90.3622 38.9424C90.3603 38.9423 90.3585 38.9423 90.3566 38.9424C90.3535 38.9426 90.3504 38.9431 90.3473 38.944L85.4139 40.3317ZM91.2655 43.4827L86.1975 44.3153C86.1879 44.3167 86.1788 44.3203 86.1707 44.3257C86.1627 44.3311 86.1559 44.3382 86.1509 44.3465C86.1489 44.35 86.1472 44.3535 86.1457 44.3572C86.1446 44.3603 86.1436 44.3635 86.1429 44.3667C86.1424 44.3691 86.1421 44.3715 86.1418 44.3739C86.1408 44.3835 86.142 44.3933 86.1452 44.4025C86.2091 44.5887 86.2283 44.7837 86.2476 44.9796C86.2586 45.0919 86.2697 45.2046 86.2893 45.3161C86.3151 45.4617 86.3258 45.6046 86.3366 45.7508C86.3461 45.8775 86.3557 46.0068 86.3756 46.1425C86.4209 46.4472 86.4378 46.7657 86.4543 47.0779C86.4656 47.2905 86.4767 47.5003 86.4966 47.7006C86.4984 47.7199 86.5073 47.7378 86.5215 47.7507C86.5357 47.7637 86.5542 47.7709 86.5734 47.7708L91.6861 47.7742C91.6882 47.7742 91.6903 47.7741 91.6924 47.7738L91.6946 47.7735L91.6964 47.7732C91.701 47.7724 91.7056 47.771 91.7099 47.769C91.7174 47.7656 91.724 47.7606 91.7294 47.7544C91.7304 47.7532 91.7314 47.752 91.7324 47.7508C91.7343 47.7481 91.736 47.7453 91.7375 47.7424C91.7385 47.7404 91.7394 47.7384 91.7401 47.7363L91.7412 47.7331C91.7436 47.7252 91.7443 47.7169 91.7432 47.7088C91.6952 47.3291 91.6635 46.9496 91.6481 46.5704C91.6385 46.332 91.6141 46.0942 91.5895 45.8557C91.5687 45.6533 91.5478 45.4502 91.5359 45.2459C91.5204 44.9754 91.4777 44.7043 91.435 44.4331C91.3879 44.1339 91.3407 43.8346 91.33 43.5359C91.3287 43.4936 91.3071 43.4759 91.2655 43.4827ZM86.468 51.8C86.449 52.067 86.4324 52.3343 86.4184 52.6018C86.4106 52.7455 86.3917 52.8968 86.3724 53.0505C86.3533 53.2037 86.3338 53.3594 86.3246 53.5127C86.3147 53.6785 86.2928 53.8407 86.2708 54.0029C86.2505 54.1534 86.2301 54.304 86.2193 54.4577C86.2088 54.611 86.1756 54.7476 86.1413 54.8892C86.1335 54.9212 86.1257 54.9536 86.118 54.9864C86.1099 55.0218 86.1235 55.0425 86.1588 55.0484L91.2335 55.8836C91.2442 55.8854 91.2551 55.8849 91.2656 55.8821C91.276 55.8794 91.2858 55.8745 91.2942 55.8677C91.3026 55.861 91.3095 55.8525 91.3143 55.8429C91.317 55.8378 91.319 55.8325 91.3203 55.8269C91.3216 55.8221 91.3223 55.8171 91.3225 55.8121C91.3307 55.6504 91.3461 55.4971 91.3688 55.3522C91.4571 54.7927 91.5217 54.2301 91.5625 53.6647C91.5698 53.5628 91.5832 53.4507 91.5972 53.3331C91.6192 53.1479 91.6428 52.9489 91.6474 52.7551C91.6574 52.3473 91.6907 51.9444 91.7473 51.5465C91.748 51.5415 91.7476 51.5364 91.7461 51.5315C91.7453 51.5287 91.7441 51.526 91.7426 51.5235C91.7415 51.5217 91.7402 51.5199 91.7388 51.5183C91.7354 51.5145 91.7313 51.5115 91.7267 51.5094C91.7235 51.508 91.7202 51.5071 91.7168 51.5066L91.7142 51.5064L91.712 51.5063L86.5387 51.5077C86.5006 51.5077 86.4812 51.5268 86.4803 51.5649C86.4784 51.6349 86.4744 51.7132 86.468 51.8ZM85.3358 59.0128L90.2617 60.4013C90.2754 60.4052 90.2899 60.4063 90.3041 60.4044C90.3183 60.4025 90.332 60.3977 90.3444 60.3903C90.3567 60.3829 90.3675 60.3731 90.3759 60.3614C90.3843 60.3497 90.3903 60.3364 90.3935 60.3222L91.1472 56.9226C91.1491 56.9139 91.1492 56.9049 91.1475 56.8961C91.1458 56.8874 91.1424 56.8791 91.1374 56.8718C91.1325 56.8644 91.1261 56.8582 91.1186 56.8535C91.1112 56.8488 91.1029 56.8456 91.0942 56.8442L86.0473 56.0158C86.0352 56.0138 86.0229 56.0142 86.011 56.0172C86.0063 56.0183 86.0018 56.0198 85.9974 56.0217C85.9905 56.0246 85.9841 56.0283 85.9781 56.0328C85.9683 56.0402 85.9601 56.0495 85.954 56.0602C85.9515 56.0646 85.9494 56.0692 85.9476 56.0739C85.9452 56.0807 85.9435 56.0877 85.9427 56.0948C85.9016 56.4365 85.8305 56.7608 85.7584 57.0898C85.7328 57.2068 85.707 57.3246 85.6824 57.4438C85.5755 57.9611 85.4534 58.4728 85.3161 58.9787C85.3155 58.9807 85.3153 58.9828 85.3152 58.9848C85.315 58.9899 85.3163 58.9951 85.3189 58.9996C85.3209 59.003 85.3235 59.0059 85.3266 59.0082C85.3293 59.0102 85.3324 59.0118 85.3358 59.0128ZM84.1063 62.9302L88.8025 64.8563C88.8072 64.8582 88.8122 64.8596 88.8172 64.8605C88.821 64.8611 88.8248 64.8614 88.8287 64.8614C88.8321 64.8614 88.8355 64.8612 88.8388 64.8606C88.8405 64.8604 88.8422 64.8601 88.844 64.8597C88.8477 64.8588 88.8513 64.8576 88.8548 64.8561C88.8631 64.8526 88.8706 64.8475 88.8769 64.8411C88.8802 64.8378 88.8832 64.8341 88.8857 64.8301C88.888 64.8265 88.89 64.8227 88.8915 64.8188C89.3179 63.7328 89.6973 62.6314 90.0299 61.5145C90.0332 61.5038 90.0384 61.4931 90.0443 61.4823C90.0487 61.4744 90.0536 61.4664 90.0584 61.4585C90.07 61.4396 90.0815 61.4206 90.087 61.4021C90.0951 61.3748 90.0856 61.3574 90.0585 61.3496L85.1489 59.9598C85.0809 59.9407 85.037 59.9653 85.017 60.0334C84.7411 60.979 84.4228 61.9097 84.0622 62.8253C84.0543 62.8452 84.0545 62.8674 84.0627 62.8871C84.071 62.9068 84.0867 62.9223 84.1063 62.9302ZM72.0363 28.1257C69.3103 25.3992 66.1195 23.1966 62.5862 21.6555C60.2505 20.6372 57.8245 19.9264 55.3081 19.523C54.8954 19.4567 54.4817 19.394 54.0671 19.335C53.914 19.3134 53.7501 19.3013 53.5836 19.2891C53.4301 19.2778 53.2743 19.2664 53.1225 19.2471C52.7012 19.1944 52.2959 19.179 51.8895 19.1636C51.692 19.1561 51.4943 19.1485 51.2943 19.1367C50.5576 19.0924 49.8159 19.126 49.0765 19.1596C48.805 19.1719 48.5337 19.1842 48.2632 19.1926C48.0851 19.198 47.9195 19.2225 47.7476 19.248L47.7399 19.2492C47.5992 19.2699 47.4557 19.2793 47.311 19.2888C47.1424 19.2999 46.9719 19.3111 46.8027 19.3404C46.6738 19.3627 46.5492 19.3767 46.4251 19.3907C46.3288 19.4016 46.2327 19.4124 46.1353 19.427C39.4145 20.4353 33.3564 23.5113 28.6045 28.3955C28.5904 28.4099 28.5824 28.4292 28.5821 28.4494C28.5819 28.4696 28.5894 28.4891 28.6031 28.5038L29.1407 29.0816C29.1806 29.1247 29.2211 29.1254 29.2624 29.0836C33.9816 24.2744 40.0112 21.2154 46.6797 20.3372C46.7354 20.3299 46.8262 20.3224 46.9522 20.3147C47.0729 20.3075 47.2012 20.2882 47.3237 20.2698C47.4337 20.2532 47.5392 20.2374 47.6304 20.2316C47.9481 20.2102 48.2654 20.185 48.5826 20.156C49.3401 20.0869 50.1118 20.0957 50.8773 20.1046H50.8777H50.878C51.1013 20.1071 51.324 20.1097 51.5457 20.1103C51.843 20.1107 52.1514 20.1388 52.4625 20.1671C52.6885 20.1876 52.9159 20.2083 53.1415 20.2186C53.294 20.2258 53.4468 20.2475 53.6003 20.2693C53.7088 20.2847 53.8177 20.3002 53.9271 20.3106C54.1849 20.3347 54.3809 20.3576 54.515 20.3794C54.6779 20.4062 54.8447 20.432 55.0115 20.4578L55.0119 20.4579C55.3454 20.5095 55.6789 20.5611 55.9809 20.6206C62.1906 21.8374 67.8016 24.9359 72.1151 29.6048C72.1227 29.6131 72.132 29.6196 72.1423 29.6241C72.1526 29.6287 72.1637 29.631 72.1749 29.631C72.1861 29.631 72.1973 29.6287 72.2075 29.6241C72.2178 29.6196 72.2271 29.6131 72.2347 29.6048L72.8042 28.9869C72.81 28.9806 72.8132 28.9725 72.8132 28.9639C72.8132 28.9553 72.81 28.947 72.8042 28.9405C72.5582 28.6635 72.3022 28.3919 72.0363 28.1257ZM54.443 22.0377C59.7243 22.8048 64.7107 25.0933 68.7306 28.6128C69.4558 29.2471 70.272 30.0081 71.0168 30.8747C71.0313 30.8911 71.0309 30.9072 71.0155 30.9231L70.4201 31.5376C70.3848 31.574 70.3504 31.5731 70.3168 31.5349C69.4884 30.594 68.6355 29.7724 67.7105 29.0012C63.7737 25.7196 59.2549 23.7087 54.1541 22.9683C54.1093 22.9615 53.9391 22.9427 53.6437 22.9118C53.5532 22.9024 53.4637 22.8886 53.3746 22.8748C53.2374 22.8536 53.101 22.8325 52.9634 22.828C52.691 22.8193 52.4141 22.7963 52.1401 22.7734C51.8099 22.7459 51.484 22.7187 51.1753 22.7176C51.0551 22.7171 50.935 22.7161 50.8149 22.7151C50.1955 22.7099 49.5769 22.7047 48.953 22.7612C48.7774 22.777 48.6027 22.7885 48.4281 22.8001C48.1277 22.8199 47.8274 22.8398 47.5231 22.8811C47.361 22.9029 47.2095 22.922 47.0603 22.9407L47.0599 22.9408C46.6408 22.9935 46.2401 23.0438 45.6738 23.1468C40.1152 24.1579 34.963 26.913 31.0654 31.0396C31.0603 31.0451 31.054 31.0495 31.0471 31.0525C31.0402 31.0554 31.0328 31.057 31.0253 31.057C31.0178 31.057 31.0104 31.0554 31.0035 31.0525C30.9966 31.0495 30.9904 31.0451 30.9852 31.0396L30.3844 30.4142C30.3755 30.4048 30.3706 30.3924 30.3706 30.3794C30.3706 30.3665 30.3755 30.3541 30.3844 30.3447C34.3928 26.1561 39.5872 23.3308 45.2695 22.24C45.8369 22.131 46.7796 21.9689 47.6406 21.8946C47.8876 21.8737 48.0838 21.854 48.2292 21.8353C48.6092 21.7871 49.013 21.7827 49.3964 21.7786C49.5602 21.7768 49.7203 21.775 49.8732 21.7699C50.2425 21.7577 50.5936 21.7572 50.9266 21.7686C51.1098 21.7747 51.2945 21.7764 51.4795 21.778C51.9075 21.7818 52.3376 21.7856 52.7575 21.8456C52.8862 21.8637 53.0599 21.8783 53.2788 21.8892C53.45 21.8979 53.6146 21.9235 53.7801 21.9492C53.8977 21.9674 54.0158 21.9857 54.1371 21.9982C54.2187 22.0068 54.3206 22.02 54.443 22.0377ZM38.5827 61.3319L37.8195 61.3135C37.8039 61.3132 37.789 61.3067 37.7781 61.2955C37.7671 61.2843 37.761 61.2692 37.761 61.2536L37.7474 58.0931C37.7473 58.078 37.7412 58.0636 37.7307 58.053C37.7201 58.0425 37.7059 58.0365 37.691 58.0365L35.1588 58.0256C35.145 58.0254 35.1319 58.0198 35.1222 58.01C35.1125 58.0002 35.1071 57.9869 35.1071 57.9732V48.3744C35.1071 48.363 35.1041 48.3517 35.0985 48.3417C35.0929 48.3317 35.085 48.3235 35.0755 48.3179C35.0661 48.3123 35.0555 48.3096 35.045 48.3101C35.0345 48.3106 35.0245 48.3142 35.0161 48.3206L31.4997 50.9211C31.4499 50.9583 31.4249 51.0078 31.4249 51.0696C31.4254 53.9883 31.4297 56.9028 31.4378 59.8133C31.4378 59.9378 31.3907 60.0377 31.2965 60.1131C30.9884 60.3597 30.6973 60.6236 30.4232 60.9048C30.4064 60.922 30.4039 60.9411 30.4157 60.962C34.034 67.4983 40.4455 71.6964 47.7147 72.6264C47.9361 72.6548 48.1763 72.6727 48.4187 72.6907C48.5721 72.7021 48.7267 72.7137 48.8776 72.7279C49.2174 72.7602 49.5083 72.7792 49.7502 72.7851C50.67 72.8074 51.2603 72.8042 51.5213 72.7756C51.7571 72.7499 51.9935 72.7322 52.2299 72.7145L52.2304 72.7145C52.5648 72.6894 52.899 72.6644 53.2305 72.6169C53.3043 72.6063 53.3777 72.5959 53.4511 72.5856C53.9988 72.5082 54.5471 72.4308 55.2422 72.2776C62.455 70.6888 68.4996 65.7883 71.4443 58.9767C71.4629 58.9335 71.4521 58.8999 71.4117 58.8759L69.0093 57.454C68.994 57.4449 68.9813 57.433 68.9725 57.4197C68.9637 57.4063 68.959 57.3918 68.959 57.3777L68.9644 51.5234C68.9646 51.4922 68.9562 51.4616 68.94 51.4349C68.9238 51.4082 68.9005 51.3865 68.8727 51.3721C66.9484 50.3788 65.026 49.3859 63.1054 48.3935C63.085 48.383 63.0674 48.3801 63.0524 48.3846C63.0507 48.3852 63.049 48.386 63.0475 48.387C63.0455 48.3884 63.0436 48.3902 63.0421 48.3922L63.041 48.3941C63.0402 48.3954 63.0396 48.3968 63.0391 48.3982C63.0385 48.4002 63.0382 48.4023 63.0381 48.4044L63.0395 60.9225C63.0395 60.957 63.0223 60.9742 62.9878 60.9742L60.5963 60.9804C60.5523 60.9804 60.5303 61.0024 60.5303 61.0465L60.5392 66.4048C60.5392 66.4062 60.5391 66.4076 60.5389 66.4089L60.5386 66.4108C60.5384 66.4118 60.5381 66.4128 60.5378 66.4137C60.5376 66.4146 60.5372 66.4155 60.5369 66.4163C60.5354 66.4199 60.5332 66.4232 60.5304 66.426C60.529 66.4274 60.5275 66.4287 60.5258 66.4298C60.5242 66.4309 60.5225 66.4318 60.5207 66.4325C60.5171 66.434 60.5132 66.4348 60.5093 66.4348L59.6427 66.4355C59.6319 66.4355 59.6216 66.4311 59.6139 66.4233C59.6098 66.4192 59.6067 66.4142 59.6047 66.4088C59.6029 66.4041 59.602 66.3991 59.602 66.3939C59.6024 54.9096 59.6024 43.4212 59.602 31.9287C59.602 31.9046 59.5911 31.866 59.5693 31.8129C59.5585 31.787 59.5474 31.7868 59.536 31.8122L59.5259 31.8354C59.5168 31.8553 59.5043 31.8733 59.4885 31.8892L53.8442 37.5487C53.8236 37.5692 53.8071 37.5936 53.7959 37.6207C53.7847 37.6477 53.779 37.6767 53.779 37.7061L53.781 45.3733C53.781 45.4092 53.774 45.4447 53.7602 45.4779C53.7464 45.5111 53.7263 45.5413 53.7008 45.5668L49.6863 49.5817C49.642 49.6261 49.617 49.6864 49.617 49.7493L49.6129 66.3871C49.6129 66.399 49.6082 66.4105 49.5998 66.4189C49.5989 66.4198 49.598 66.4207 49.597 66.4215C49.5954 66.4228 49.5937 66.4241 49.5919 66.4252C49.5913 66.4256 49.5907 66.426 49.5901 66.4263C49.5887 66.4271 49.5872 66.4278 49.5857 66.4285C49.5831 66.4296 49.5804 66.4304 49.5777 66.431C49.5756 66.4315 49.5735 66.4318 49.5714 66.432C49.5703 66.432 49.5692 66.4321 49.5681 66.4321L48.7219 66.4348C48.7163 66.4348 48.7108 66.4337 48.7056 66.4315C48.7028 66.4304 48.7002 66.429 48.6977 66.4273C48.6956 66.4258 48.6935 66.4241 48.6917 66.4222C48.6903 66.4209 48.6891 66.4195 48.688 66.418C48.6857 66.4151 48.6838 66.4118 48.6824 66.4083C48.6812 66.4053 48.6803 66.4022 48.6797 66.3991C48.6793 66.3967 48.6791 66.3943 48.6791 66.3919L48.6798 58.1653C48.6798 58.1508 48.6763 58.1365 48.6695 58.1237C48.6628 58.1109 48.653 58.0999 48.6411 58.0917L45.7357 56.0935C45.6904 56.0621 45.6677 56.0739 45.6677 56.1289L45.667 66.3973C45.667 66.4076 45.6629 66.4175 45.6555 66.4248C45.6481 66.4321 45.6381 66.4362 45.6276 66.4362L44.7931 66.4314C44.7604 66.4309 44.7441 66.4144 44.7441 66.3817C44.7455 60.7873 44.748 55.2141 44.7516 49.6621C44.7516 49.6044 44.7475 49.5612 44.7394 49.5326C44.7235 49.4786 44.6941 49.4699 44.651 49.5067L40.1472 53.4269C40.125 53.4463 40.1072 53.4704 40.095 53.4974C40.0828 53.5244 40.0765 53.5538 40.0765 53.5836L40.0738 66.3755C40.0738 66.3833 40.0722 66.391 40.0692 66.3981C40.0662 66.4053 40.0618 66.4118 40.0562 66.4172C40.053 66.4204 40.0494 66.4232 40.0455 66.4255C40.0427 66.4272 40.0398 66.4287 40.0368 66.4299C40.0296 66.4328 40.0218 66.4342 40.014 66.4341L38.7016 66.4232C38.6877 66.423 38.6744 66.4174 38.6646 66.4076C38.6548 66.3978 38.6493 66.3846 38.6493 66.3708L38.6377 61.3885C38.6377 61.3737 38.632 61.3595 38.6217 61.349C38.6114 61.3384 38.5974 61.3323 38.5827 61.3319ZM73.685 59.5967C70.1198 67.9936 62.3503 73.7669 53.3549 74.8379C53.296 74.8447 53.1034 74.8608 52.7772 74.8863C52.6687 74.8948 52.559 74.9086 52.45 74.9223C52.2995 74.9412 52.1503 74.9599 52.0072 74.9646C50.841 75.0021 49.6251 75.0409 48.4637 74.9203C48.3155 74.905 48.1634 74.8927 48.0126 74.8804C47.801 74.8632 47.5918 74.8462 47.3994 74.8215C42.942 74.2502 38.9236 72.6316 35.3443 69.966C29.7028 65.7651 26.0464 59.2717 25.3253 52.2673C25.2974 51.9965 25.2755 51.6726 25.2525 51.3314C25.2385 51.1249 25.2242 50.9122 25.2078 50.7011C25.1378 49.7991 25.2016 48.8077 25.2634 47.8487C25.2694 47.7559 25.2754 47.6633 25.2812 47.5712C25.3063 47.1826 25.3573 46.8062 25.408 46.4313C25.4271 46.2896 25.4463 46.1481 25.464 46.0063C25.4953 45.7596 25.5218 45.5748 25.5435 45.4517C26.4311 40.4319 28.607 36.0573 32.0713 32.3279C32.122 32.273 32.1727 32.273 32.2235 32.3279L32.738 32.8859C32.7532 32.9024 32.7613 32.9243 32.7606 32.9467C32.7598 32.9692 32.7502 32.9904 32.7339 33.0058C32.5626 33.1702 32.3957 33.3444 32.233 33.5284C29.2875 36.866 27.299 40.9463 26.5188 45.3372C26.5088 45.3936 26.4988 45.4496 26.4889 45.5052C26.4204 45.8902 26.3544 46.2604 26.3128 46.676C26.3017 46.784 26.2881 46.893 26.2746 47.0016C26.2526 47.1783 26.2307 47.3543 26.2197 47.5235C26.2097 47.6746 26.1989 47.8256 26.1881 47.9766C26.1394 48.661 26.0906 49.3449 26.1062 50.032C26.1131 50.3448 26.1383 50.6813 26.1637 51.0208C26.181 51.2514 26.1984 51.4837 26.2102 51.7107C26.2184 51.8652 26.2392 52.0655 26.2727 52.3116C26.2887 52.429 26.2989 52.5476 26.309 52.6654C26.3221 52.8178 26.3351 52.9689 26.3604 53.1142C26.3898 53.2811 26.4171 53.4543 26.4444 53.6264C26.4852 53.8847 26.5257 54.1406 26.5718 54.3691C27.6252 59.6348 30.3437 64.4645 34.3833 68.0011C37.53 70.7558 41.148 72.5876 45.2375 73.4964C46.3032 73.7335 47.1067 73.8736 47.6481 73.9168C47.8408 73.9321 48.0343 73.951 48.2275 73.9698C48.6362 74.0098 49.0437 74.0495 49.4396 74.0551C49.5474 74.0565 49.6555 74.0582 49.7638 74.0599C50.6228 74.0731 51.4948 74.0865 52.3463 73.9951C52.4992 73.9788 52.6543 73.9656 52.8087 73.9525L52.8091 73.9525C53.0478 73.9322 53.2851 73.9121 53.5099 73.8807L53.6659 73.8589C54.0848 73.8007 54.5135 73.741 54.9105 73.6647C59.0114 72.8735 62.6716 71.1619 65.8912 68.5298C66.3852 68.1258 66.8968 67.6495 67.3948 67.1858C67.4585 67.1265 67.5223 67.0672 67.5855 67.0085C67.9144 66.7028 68.3761 66.1975 68.9705 65.4926C71.7291 62.221 73.5552 58.3799 74.3586 54.1702C74.4646 53.613 74.5454 52.9762 74.6223 52.3705L74.6311 52.3014C74.6852 51.8765 74.7079 51.4439 74.7307 51.0111C74.7451 50.7369 74.7595 50.4626 74.782 50.1901C74.8172 49.7653 74.783 49.2747 74.7483 48.7756C74.7301 48.5143 74.7118 48.2507 74.7031 47.9929C74.6927 47.6741 74.6802 47.4583 74.6657 47.3457C74.6475 47.2038 74.6297 47.0602 74.6117 46.916L74.6116 46.9151L74.6114 46.9138L74.6114 46.9133C74.5404 46.3432 74.4683 45.7634 74.3681 45.2378C73.5258 40.8144 71.6185 36.9067 68.6463 33.5148C68.6051 33.4675 68.6056 33.4205 68.6477 33.3737L69.116 32.8539C69.1848 32.7776 69.2514 32.7794 69.3158 32.8594C69.4467 33.0232 69.5915 33.1922 69.7315 33.3557C69.864 33.5105 69.9923 33.6603 70.1007 33.7961C72.9805 37.4006 74.7652 41.4938 75.4548 46.0758C75.4734 46.1993 75.4974 46.4109 75.5268 46.7107C75.5409 46.8536 75.5556 46.9965 75.5703 47.1394C75.6309 47.7295 75.6917 48.3206 75.7076 48.9113C75.7402 50.1126 75.6838 51.3106 75.5384 52.5051C75.5285 52.5858 75.5222 52.6678 75.516 52.7491C75.5076 52.8581 75.4994 52.966 75.4826 53.0685C75.3716 53.7612 75.2987 54.2054 75.2638 54.4012C74.9571 56.108 74.4308 57.8399 73.685 59.5967ZM28.2784 71.2989C28.2759 71.2912 28.2719 71.2842 28.2666 71.2781L25.9166 68.5488C25.9113 68.5427 25.9049 68.5377 25.8978 68.5341C25.8906 68.5304 25.8828 68.5283 25.8748 68.5277L25.872 68.5276C25.869 68.5275 25.866 68.5276 25.8631 68.528C25.859 68.5284 25.855 68.5293 25.8511 68.5306C25.8435 68.5332 25.8364 68.5372 25.8303 68.5424L20.0539 73.5408C20.0478 73.5461 20.0428 73.5525 20.0392 73.5597C20.0356 73.5669 20.0334 73.5747 20.0328 73.5827C20.0322 73.5908 20.0332 73.5988 20.0358 73.6065C20.0383 73.6141 20.0423 73.6212 20.0475 73.6273L22.3976 76.3566C22.4028 76.3627 22.4092 76.3677 22.4164 76.3713C22.4236 76.3749 22.4314 76.3771 22.4394 76.3776C22.4474 76.3782 22.4555 76.3772 22.4631 76.3747C22.4707 76.3722 22.4778 76.3682 22.4839 76.3629L28.2603 71.3645L28.2628 71.3622C28.2655 71.3596 28.268 71.3568 28.2702 71.3537C28.272 71.3512 28.2736 71.3485 28.275 71.3457C28.2768 71.342 28.2783 71.3383 28.2793 71.3344C28.2804 71.3305 28.2811 71.3266 28.2813 71.3226C28.2819 71.3146 28.2809 71.3065 28.2784 71.2989ZM78.6057 76.3595C78.6006 76.3654 78.5943 76.3703 78.5873 76.3738C78.5803 76.3774 78.5726 76.3795 78.5648 76.3801C78.5625 76.3802 78.5602 76.3803 78.5579 76.3802C78.5565 76.3801 78.5551 76.38 78.5538 76.3799C78.5497 76.3794 78.5456 76.3785 78.5416 76.3772C78.5366 76.3755 78.5318 76.3732 78.5274 76.3702C78.5253 76.3689 78.5232 76.3673 78.5213 76.3657L72.7397 71.3628C72.7366 71.3601 72.7337 71.3571 72.7312 71.3538C72.729 71.3508 72.727 71.3477 72.7254 71.3444C72.7219 71.3374 72.7197 71.3297 72.7192 71.3218C72.7189 71.3177 72.719 71.3136 72.7195 71.3095C72.72 71.3058 72.7209 71.3022 72.722 71.2986C72.7245 71.2912 72.7284 71.2842 72.7335 71.2783L75.0863 68.5459C75.0914 68.54 75.0976 68.5351 75.1047 68.5315C75.1117 68.528 75.1193 68.5259 75.1272 68.5253C75.135 68.5247 75.1429 68.5257 75.1503 68.5282C75.1578 68.5306 75.1647 68.5346 75.1706 68.5397L80.9522 73.5425C80.9582 73.5477 80.963 73.5539 80.9666 73.561C80.9691 73.566 80.9709 73.5713 80.9719 73.5768C80.9723 73.579 80.9726 73.5813 80.9728 73.5835C80.9734 73.5914 80.9724 73.5993 80.9699 73.6067C80.9674 73.6142 80.9635 73.6211 80.9584 73.6271L78.6057 76.3595ZM22.227 81.1337C22.2555 81.16 22.2562 81.1871 22.229 81.2148L20.4056 83.0665C20.3961 83.0762 20.3886 83.0877 20.3837 83.1004C20.3788 83.113 20.3765 83.1265 20.3769 83.1401C20.3774 83.1537 20.3805 83.167 20.3863 83.1793C20.392 83.1916 20.4002 83.2026 20.4104 83.2117C22.6776 85.2542 25.1357 87.0491 27.7849 88.5966C28.6838 89.1216 29.5956 89.6233 30.5204 90.1016C30.5958 90.1407 30.6715 90.1826 30.747 90.2245C30.8728 90.2944 30.9983 90.364 31.1218 90.4197C35.504 92.3964 40.0838 93.6749 44.861 94.2554C44.9911 94.2713 45.1216 94.2847 45.2525 94.2956C45.3675 94.3054 45.4857 94.3204 45.6055 94.3357C45.7765 94.3574 45.9507 94.3796 46.1238 94.3876C46.3 94.3953 46.4602 94.4087 46.6043 94.4278C46.895 94.4663 47.1992 94.4785 47.492 94.4903C47.6913 94.4983 47.8853 94.5061 48.0661 94.5218C49.0475 94.6076 50.0635 94.6008 51.3004 94.5858C51.9827 94.5776 52.6356 94.5399 53.2666 94.5034C53.4716 94.4916 53.6742 94.4799 53.8748 94.4693C54.0056 94.4625 54.1466 94.4448 54.2907 94.4268C54.4335 94.4089 54.5792 94.3906 54.721 94.3821C55.1925 94.3547 55.6523 94.2977 56.1209 94.2395C56.3627 94.2095 56.6069 94.1792 56.8563 94.1525C57.2274 94.113 58.0703 93.9663 59.3852 93.7124C62.0792 93.1919 64.7077 92.4418 67.2708 91.4621C68.0225 91.1746 69.2172 90.6991 70.1123 90.2637C73.9304 88.4061 77.423 86.0506 80.59 83.1973C80.5995 83.1887 80.6071 83.1782 80.6124 83.1666C80.6178 83.1549 80.6207 83.1423 80.6211 83.1295C80.6215 83.1168 80.6193 83.104 80.6147 83.0922C80.6113 83.0836 80.6068 83.0757 80.6012 83.0685C80.599 83.0657 80.5966 83.063 80.5941 83.0604L78.7625 81.2005C78.7585 81.1965 78.7554 81.1917 78.7533 81.1864C78.7513 81.1812 78.7503 81.1755 78.7504 81.1699C78.7505 81.1642 78.7518 81.1586 78.7541 81.1535C78.7564 81.1483 78.7597 81.1437 78.7639 81.1398C79.8046 80.1706 80.7923 79.1757 81.727 78.1551C82.6114 77.1895 83.4505 76.1821 84.2443 75.1329C84.2501 75.1251 84.2543 75.1162 84.2565 75.1068C84.2588 75.0974 84.2591 75.0876 84.2574 75.0781C84.2565 75.0729 84.2551 75.068 84.2531 75.0632C84.2514 75.0591 84.2493 75.0552 84.2469 75.0515C84.2441 75.0473 84.2409 75.0434 84.2374 75.0399C84.2341 75.0367 84.2305 75.0339 84.2267 75.0314L83.5389 74.5851C83.5031 74.562 83.4723 74.5674 83.4464 74.6015C79.6478 79.5904 74.9806 83.5344 69.4449 86.4335C69.2374 86.542 69.0269 86.6447 68.8135 86.7414C68.7583 86.7663 68.6998 86.7756 68.6408 86.785C68.5866 86.7936 68.5319 86.8023 68.4792 86.8232C68.1412 86.9581 67.805 87.0977 67.4706 87.2422C63.334 89.0281 59.0243 90.1377 54.5415 90.571C54.2532 90.5991 53.9351 90.6212 53.6138 90.6435C53.4057 90.658 53.1963 90.6725 52.9927 90.6888C51.7583 90.7866 50.4955 90.7668 49.2508 90.7473C49.055 90.7442 48.8596 90.7412 48.6649 90.7386C48.3881 90.7353 48.1 90.7101 47.81 90.6847C47.6228 90.6683 47.4348 90.6518 47.2485 90.6412C46.2549 90.5832 45.2946 90.477 44.3309 90.3373C40.6583 89.8054 37.1109 88.8169 33.6888 87.3716C33.5779 87.3248 33.4667 87.2782 33.3553 87.2314C32.6947 86.9543 32.0285 86.6748 31.412 86.3524C29.0098 85.0957 26.7519 83.6143 24.6383 81.9083C22.9134 80.5158 21.4937 79.145 19.9632 77.5154C19.8882 77.4352 19.8135 77.3453 19.7377 77.2538C19.6677 77.1696 19.5968 77.0841 19.5234 77.0037C18.8194 76.2338 18.1656 75.4047 17.5308 74.5729C17.5267 74.5677 17.5209 74.5642 17.5145 74.563C17.5081 74.5619 17.5015 74.5632 17.4961 74.5667L16.7649 75.0375C16.7575 75.0423 16.7511 75.0485 16.7462 75.0559C16.7413 75.0633 16.738 75.0715 16.7365 75.0803C16.735 75.089 16.7352 75.0979 16.7373 75.1065C16.7394 75.1151 16.7432 75.1231 16.7486 75.1301C17.6864 76.3647 18.6658 77.5535 19.7267 78.6654C20.5291 79.5066 21.3625 80.3293 22.227 81.1337Z" fill="url(#paint0_linear_6814_79747)"/>
</g>
<defs>
<linearGradient id="paint0_linear_6814_79747" x1="50.4505" y1="4.50452" x2="50.4505" y2="94.595" gradientUnits="userSpaceOnUse">
<stop stop-color="#CEE3C0"/>
<stop offset="1" stop-color="#F2DB05"/>
</linearGradient>
<clipPath id="clip0_6814_79747">
<rect width="100" height="100" fill="white"/>
</clipPath>
</defs>
</svg>
