<svg width="30" height="30" viewBox="0 0 30 30" fill="none" xmlns="http://www.w3.org/2000/svg">
<path d="M15.5432 2.58224L8.74689 4.84786C8.03939 5.08349 7.53564 5.78211 7.53564 6.52749V24.8869H6.28564C5.59564 24.8869 5.03564 25.4465 5.03564 26.1369C5.03564 26.8272 5.59564 27.3869 6.28564 27.3869H21.2856H23.7856C24.4756 27.3869 25.0356 26.8272 25.0356 26.1369C25.0356 25.4465 24.4756 24.8869 23.7856 24.8869H22.5356V7.38686C22.5356 5.31574 20.8569 3.63686 18.7856 3.63686L17.4856 3.64086C17.3044 2.75411 16.3919 2.29924 15.5432 2.58224ZM15.0356 5.39474C15.0356 6.51961 15.0356 10.1146 15.0356 13.6369C14.3456 13.6369 13.7856 14.1965 13.7856 14.8869C13.7856 15.5772 14.3456 16.1369 15.0356 16.1369C15.0356 19.9019 15.0356 23.7667 15.0356 24.8869H10.0356V7.07436L15.0356 5.39474ZM17.5356 6.13686H18.7856C19.4756 6.13686 20.0356 6.69649 20.0356 7.38686V24.8869H17.5356C17.5356 22.4879 17.5356 9.65599 17.5356 6.13686Z" fill="#615EF0"/>
</svg>
